<svg width="33" height="33" viewBox="0 0 33 33" fill="none" xmlns="http://www.w3.org/2000/svg">
<g clip-path="url(#clip0_5_798)">
<path d="M32.8286 16.4143C32.8286 7.34892 25.4797 0 16.4143 0C7.34892 0 0 7.34892 0 16.4143C0 24.607 6.00243 31.3978 13.8496 32.6292V21.159H9.68186V16.4143H13.8496V12.798C13.8496 8.68418 16.3002 6.41183 20.0495 6.41183C21.8448 6.41183 23.7238 6.73242 23.7238 6.73242V10.7719H21.654C19.6151 10.7719 18.979 12.0373 18.979 13.3366V16.4143H23.5314L22.8037 21.159H18.979V32.6292C26.8261 31.3978 32.8286 24.607 32.8286 16.4143Z" fill="white"/>
</g>
<defs>
<clipPath id="clip0_5_798">
<rect width="32.8286" height="32.8286" fill="white"/>
</clipPath>
</defs>
</svg>
