<svg width="34" height="33" viewBox="0 0 34 33" fill="none" xmlns="http://www.w3.org/2000/svg">
<g clip-path="url(#clip0_5_799)">
<path d="M17.2424 2.95598C21.6281 2.95598 22.1475 2.97521 23.8722 3.05215C25.4752 3.12268 26.3408 3.39198 26.9179 3.61639C27.6809 3.91134 28.2323 4.2704 28.8029 4.84105C29.38 5.41812 29.7327 5.96312 30.0276 6.72613C30.252 7.3032 30.5213 8.17521 30.5918 9.77175C30.6688 11.5029 30.688 12.0223 30.688 16.4016C30.688 20.7873 30.6688 21.3066 30.5918 23.0314C30.5213 24.6344 30.252 25.5 30.0276 26.077C29.7327 26.84 29.3736 27.3915 28.8029 27.9621C28.2259 28.5392 27.6809 28.8918 26.9179 29.1868C26.3408 29.4112 25.4688 29.6805 23.8722 29.751C22.141 29.828 21.6217 29.8472 17.2424 29.8472C12.8567 29.8472 12.3374 29.828 10.6126 29.751C9.00962 29.6805 8.14402 29.4112 7.56696 29.1868C6.80395 28.8918 6.25253 28.5328 5.68188 27.9621C5.10482 27.385 4.75217 26.84 4.45722 26.077C4.23281 25.5 3.96351 24.628 3.89298 23.0314C3.81604 21.3002 3.7968 20.7809 3.7968 16.4016C3.7968 12.0159 3.81604 11.4965 3.89298 9.77175C3.96351 8.16879 4.23281 7.3032 4.45722 6.72613C4.75217 5.96312 5.11123 5.41171 5.68188 4.84105C6.25895 4.26399 6.80395 3.91134 7.56696 3.61639C8.14402 3.39198 9.01603 3.12268 10.6126 3.05215C12.3374 2.97521 12.8567 2.95598 17.2424 2.95598ZM17.2424 0.00012207C12.7862 0.00012207 12.2284 0.0193576 10.4779 0.0962995C8.73391 0.173241 7.5349 0.455362 6.49618 0.859307C5.41258 1.28249 4.49569 1.84032 3.58521 2.75721C2.66832 3.66769 2.11049 4.58458 1.68731 5.66177C1.28336 6.7069 1.00124 7.8995 0.924302 9.64351C0.84736 11.4004 0.828125 11.9582 0.828125 16.4144C0.828125 20.8706 0.84736 21.4285 0.924302 23.1789C1.00124 24.9229 1.28336 26.1219 1.68731 27.1606C2.11049 28.2442 2.66832 29.1611 3.58521 30.0716C4.49569 30.9821 5.41258 31.5463 6.48977 31.9631C7.5349 32.367 8.7275 32.6492 10.4715 32.7261C12.2219 32.803 12.7798 32.8223 17.236 32.8223C21.6922 32.8223 22.2501 32.803 24.0005 32.7261C25.7445 32.6492 26.9435 32.367 27.9822 31.9631C29.0594 31.5463 29.9763 30.9821 30.8868 30.0716C31.7973 29.1611 32.3615 28.2442 32.7783 27.167C33.1822 26.1219 33.4643 24.9293 33.5413 23.1853C33.6182 21.4349 33.6375 20.877 33.6375 16.4208C33.6375 11.9646 33.6182 11.4068 33.5413 9.65634C33.4643 7.91232 33.1822 6.71331 32.7783 5.67459C32.3743 4.58458 31.8165 3.66769 30.8996 2.75721C29.9891 1.84673 29.0722 1.28249 27.9951 0.865719C26.9499 0.461774 25.7573 0.179653 24.0133 0.102711C22.2565 0.0193576 21.6986 0.00012207 17.2424 0.00012207Z" fill="white"/>
<path d="M17.2425 7.98291C12.5875 7.98291 8.81091 11.7595 8.81091 16.4145C8.81091 21.0695 12.5875 24.846 17.2425 24.846C21.8975 24.846 25.674 21.0695 25.674 16.4145C25.674 11.7595 21.8975 7.98291 17.2425 7.98291ZM17.2425 21.8838C14.2225 21.8838 11.7732 19.4344 11.7732 16.4145C11.7732 13.3945 14.2225 10.9452 17.2425 10.9452C20.2624 10.9452 22.7118 13.3945 22.7118 16.4145C22.7118 19.4344 20.2624 21.8838 17.2425 21.8838Z" fill="white"/>
<path d="M27.9758 7.64934C27.9758 8.73936 27.091 9.61778 26.0074 9.61778C24.9174 9.61778 24.0389 8.73294 24.0389 7.64934C24.0389 6.55933 24.9238 5.68091 26.0074 5.68091C27.091 5.68091 27.9758 6.56574 27.9758 7.64934Z" fill="white"/>
</g>
<defs>
<clipPath id="clip0_5_799">
<rect width="32.8286" height="32.8286" fill="white" transform="translate(0.828613)"/>
</clipPath>
</defs>
</svg>
