<svg width="34" height="33" viewBox="0 0 34 33" fill="none" xmlns="http://www.w3.org/2000/svg">
<g clip-path="url(#clip0_5_800)">
<path d="M24.0095 0H18.4769V22.3615C18.4769 25.0259 16.3491 27.2144 13.701 27.2144C11.0529 27.2144 8.92501 25.0259 8.92501 22.3615C8.92501 19.7447 11.0056 17.6037 13.5592 17.5086V11.8944C7.93199 11.9895 3.39246 16.6046 3.39246 22.3615C3.39246 28.166 8.02656 32.8286 13.7483 32.8286C19.4699 32.8286 24.104 28.1184 24.104 22.3615V10.8953C26.1847 12.4178 28.7381 13.3217 31.4335 13.3693V7.75516C27.2723 7.61243 24.0095 4.18683 24.0095 0Z" fill="white"/>
</g>
<defs>
<clipPath id="clip0_5_800">
<rect width="32.8286" height="32.8286" fill="white" transform="translate(0.657104)"/>
</clipPath>
</defs>
</svg>
